<?xml version="1.0" encoding="UTF-8" standalone="no"?>
<!-- Created with Inkscape (http://www.inkscape.org/) -->

<svg
   version="1.1"
   id="svg2"
   xml:space="preserve"
   width="168"
   height="53.333332"
   viewBox="0 0 168 53.333332"
   sodipodi:docname="logo.ai"
   xmlns:inkscape="http://www.inkscape.org/namespaces/inkscape"
   xmlns:sodipodi="http://sodipodi.sourceforge.net/DTD/sodipodi-0.dtd"
   xmlns="http://www.w3.org/2000/svg"
   xmlns:svg="http://www.w3.org/2000/svg"><defs
     id="defs6"><clipPath
       clipPathUnits="userSpaceOnUse"
       id="clipPath16"><path
         d="M 0,40 H 126 V 0 H 0 Z"
         id="path14" /></clipPath></defs><sodipodi:namedview
     id="namedview4"
     pagecolor="#ffffff"
     bordercolor="#666666"
     borderopacity="1.0"
     inkscape:pageshadow="2"
     inkscape:pageopacity="0.0"
     inkscape:pagecheckerboard="0" /><g
     id="g8"
     inkscape:groupmode="layer"
     inkscape:label="logo"
     transform="matrix(1.3333333,0,0,-1.3333333,0,53.333333)"><g
       id="g10"><g
         id="g12"
         clip-path="url(#clipPath16)"><g
           id="g18"
           transform="translate(109,28.12)"><path
             d="m 0,0 c 0.03,-0.658 -0.247,-1.294 -0.75,-1.72 -1.011,-0.841 -2.479,-0.841 -3.49,0 -0.504,0.425 -0.781,1.061 -0.75,1.72 -0.03,0.661 0.247,1.3 0.75,1.73 1.016,0.829 2.474,0.829 3.49,0 C -0.247,1.3 0.03,0.661 0,0"
             style="fill:#33363d;fill-opacity:1;fill-rule:nonzero;stroke:none"
             id="path20" /></g><path
           d="m 104.38,23.78 h 4.18 V 9.69 h -4.18 z"
           style="fill:#33363d;fill-opacity:1;fill-rule:nonzero;stroke:none"
           id="path22" /><g
           id="g24"
           transform="translate(62.38,20.51)"><path
             d="M 0,0 C -0.38,0.09 -0.84,0.19 -1.34,0.29 -1.891,0.391 -2.45,0.438 -3.01,0.43 -3.344,0.429 -3.678,0.409 -4.01,0.37 -4.297,0.34 -4.582,0.286 -4.86,0.21 v -11 H -9.09 V 2.85 c 0.889,0.29 1.794,0.53 2.71,0.72 1.144,0.238 2.311,0.352 3.48,0.34 h 0.84 c 0.33,0 0.65,-0.06 1,-0.1 l 1,-0.17 C 0.224,3.588 0.502,3.508 0.77,3.4 L 0.05,0.03"
             style="fill:#33363d;fill-opacity:1;fill-rule:nonzero;stroke:none"
             id="path26" /></g><g
           id="g28"
           transform="translate(121.65,16.9)"><path
             d="M 0,0 C 0.064,1.057 -0.209,2.108 -0.78,3 -1.296,3.723 -2.142,4.137 -3.03,4.1 -3.922,4.141 -4.774,3.731 -5.3,3.01 c -0.584,-0.887 -0.865,-1.94 -0.8,-3 -0.058,-1.06 0.222,-2.11 0.8,-3 0.518,-0.733 1.374,-1.152 2.27,-1.11 0.895,-0.046 1.749,0.374 2.26,1.11 0.566,0.905 0.836,1.964 0.77,3.03 z M 4.35,0.04 C 4.361,-1.019 4.185,-2.072 3.83,-3.07 3.506,-3.973 2.995,-4.798 2.33,-5.49 1.671,-6.165 0.877,-6.693 0,-7.04 c -0.976,-0.377 -2.014,-0.563 -3.06,-0.55 -1.026,-0.008 -2.044,0.179 -3,0.55 -0.879,0.344 -1.673,0.872 -2.33,1.55 -0.667,0.696 -1.187,1.519 -1.53,2.42 -0.368,0.995 -0.551,2.049 -0.54,3.11 -0.017,1.06 0.173,2.113 0.56,3.1 0.681,1.809 2.093,3.247 3.89,3.96 0.954,0.38 1.973,0.567 3,0.55 1.026,0.015 2.046,-0.172 3,-0.55 C 1.783,6.38 3.179,4.923 3.82,3.1 4.198,2.111 4.385,1.059 4.37,0 Z"
             style="fill:#33363d;fill-opacity:1;fill-rule:nonzero;stroke:none"
             id="path30" /></g><g
           id="g32"
           transform="translate(73.98,18.38)"><path
             d="M 0,0 C -0.013,0.34 -0.074,0.677 -0.18,1 -0.285,1.319 -0.452,1.615 -0.67,1.87 -0.902,2.137 -1.189,2.352 -1.51,2.5 -1.901,2.68 -2.33,2.765 -2.76,2.75 -3.178,2.762 -3.595,2.684 -3.98,2.52 -4.309,2.379 -4.605,2.171 -4.85,1.91 -5.079,1.648 -5.259,1.346 -5.38,1.02 -5.494,0.694 -5.584,0.359 -5.65,0.02 Z m -9.98,-1.58 c -0.025,1.151 0.186,2.294 0.62,3.36 0.708,1.764 2.117,3.155 3.89,3.84 0.857,0.322 1.765,0.487 2.68,0.49 C -0.909,6.214 0.93,5.533 2.29,4.23 3.634,2.714 4.308,0.72 4.16,-1.3 v -0.78 c 0,-0.28 0,-0.54 -0.07,-0.76 h -9.7 c 0.087,-0.821 0.544,-1.557 1.24,-2 0.88,-0.536 1.901,-0.794 2.93,-0.74 0.774,-0.001 1.547,0.066 2.31,0.2 0.628,0.11 1.245,0.281 1.84,0.51 L 3.29,-8.19 C 2.996,-8.321 2.691,-8.428 2.38,-8.51 1.959,-8.629 1.532,-8.726 1.1,-8.8 c -0.47,-0.08 -1,-0.16 -1.51,-0.21 -0.51,-0.05 -1.07,-0.08 -1.61,-0.08 -1.209,-0.023 -2.411,0.174 -3.55,0.58 -0.934,0.341 -1.783,0.88 -2.49,1.58 -0.664,0.664 -1.167,1.471 -1.47,2.36 -0.323,0.967 -0.482,1.981 -0.47,3 z"
             style="fill:#33363d;fill-opacity:1;fill-rule:nonzero;stroke:none"
             id="path34" /></g><g
           id="g36"
           transform="translate(88.8,17.35)"><path
             d="m 0,0 c 0.078,0.964 -0.105,1.931 -0.53,2.8 -0.41,0.59 -1.105,0.914 -1.82,0.85 -0.28,0.015 -0.56,0.015 -0.84,0 -0.28,0 -0.56,-0.06 -0.82,-0.09 V -7.65 H -8.3 V 6.29 l 1.28,0.29 c 0.49,0.09 1,0.19 1.55,0.27 0.55,0.08 1.11,0.14 1.68,0.19 0.57,0.05 1.14,0.07 1.69,0.07 0.9,0.03 1.797,-0.102 2.65,-0.39 0.612,-0.237 1.18,-0.575 1.68,-1 0.649,0.444 1.365,0.781 2.12,1 0.709,0.223 1.447,0.341 2.19,0.35 1.022,0.036 2.041,-0.127 3,-0.48 0.721,-0.287 1.354,-0.755 1.84,-1.36 0.491,-0.606 0.833,-1.318 1,-2.08 0.172,-0.886 0.256,-1.787 0.25,-2.69 V -7.65 H 8.29 V 0 C 8.368,0.964 8.185,1.931 7.76,2.8 7.348,3.393 6.649,3.718 5.93,3.65 5.591,3.638 5.254,3.581 4.93,3.48 4.579,3.397 4.242,3.262 3.93,3.08 4.067,2.634 4.158,2.175 4.2,1.71 4.2,1.24 4.25,0.71 4.25,0.22 V -7.65 H 0 Z"
             style="fill:#33363d;fill-opacity:1;fill-rule:nonzero;stroke:none"
             id="path38" /></g><g
           id="g40"
           transform="translate(45.88,12.97)"><path
             d="m 0,0 c -0.265,-0.047 -0.532,-0.077 -0.8,-0.09 h -1.06 c -1.012,-0.077 -2,0.34 -2.65,1.12 -0.617,0.876 -0.93,1.93 -0.89,3 0,2.667 1,4 3,4 0.439,0 0.876,-0.058 1.3,-0.17 0.367,-0.082 0.721,-0.217 1.05,-0.4 z m 0,16.4 v -5.57 c -0.461,0.192 -0.936,0.349 -1.42,0.47 -0.523,0.111 -1.056,0.164 -1.59,0.16 -0.975,0.021 -1.945,-0.156 -2.85,-0.52 C -6.674,10.612 -7.4,10.098 -7.98,9.44 -8.576,8.734 -9.022,7.914 -9.29,7.03 -9.611,6.008 -9.769,4.941 -9.76,3.87 -9.772,2.81 -9.593,1.756 -9.23,0.76 c 0.334,-0.893 0.86,-1.702 1.54,-2.37 0.703,-0.668 1.542,-1.176 2.46,-1.49 1.071,-0.365 2.198,-0.541 3.33,-0.52 0.52,0 1.063,0.02 1.63,0.06 0.56,0.05 1.12,0.1 1.66,0.19 0.54,0.09 1.06,0.16 1.56,0.26 0.445,0.081 0.885,0.185 1.32,0.31 v 20.3 z"
             style="fill:#33363d;fill-opacity:1;fill-rule:nonzero;stroke:none"
             id="path42" /></g><g
           id="g44"
           transform="translate(9.33,14.5)"><path
             d="m 0,0 c -1.25,-0.57 -3.69,-1.84 -3.46,-3.22 0.32,-0.85 1.31,0 1.68,0.4 0.798,0.774 1.407,1.722 1.78,2.77 z M 7.48,2.99 C 6.65,0.82 4.23,-0.21 3.56,0.16 3.22,0.34 3.56,1.03 3.56,1.5 3.07,1.31 2.26,0.95 1.77,0.75 2.877,-0.2 3.515,-1.586 3.515,-3.045 3.515,-4.504 2.877,-5.89 1.77,-6.84 c 2,-3 1,-5.58 -1.79,-7.59 l -0.11,-0.07 -0.06,0.2 c -0.347,1.386 -1.003,2.675 -1.92,3.77 -0.49,0.57 -1.05,1.09 -1.6,1.61 -0.72,0.68 -1.42,1.38 -2.07,2.12 -2.75,2.88 -3.84,7.95 -3.48,11.87 0.194,2.013 0.785,3.967 1.74,5.75 0.755,1.422 1.697,2.737 2.8,3.91 2.473,2.653 5.602,4.609 9.07,5.67 3.048,1.051 6.382,0.898 9.32,-0.43 0.542,-0.288 1.057,-0.622 1.54,-1 L 15.92,18.3 16,18.22 29.37,25.07 c 1.1,0.55 1.93,0.55 2.3,0.15 0.37,-0.4 -0.15,-1.43 -0.93,-2 L 19.24,14.91 C 19.377,14.117 19.141,13.305 18.6,12.71 20.13,12.18 18.78,9.94 18.11,9.14 16.19,6.87 12.68,5.09 9.55,3.79 8.71,3.43 8.23,3.28 7.48,3 Z"
             style="fill:#33363d;fill-opacity:1;fill-rule:evenodd;stroke:none"
             id="path46" /></g><g
           id="g48"
           transform="translate(27.3,25.34)"><path
             d="m 0,0 c 0.86,1.08 0.26,1.7 -0.34,1.1 -1.217,-1.16 -2.917,-1.666 -4.57,-1.36 -2.35,0.39 -2.46,0.75 -2.06,1.1 2.728,-0.918 5.733,0.102 7.34,2.49 0.58,0.83 -1.36,1.49 -2.5,3 -5.48,7.44 -22.64,0.99 -24.28,-11.94 -0.54,-4.037 0.647,-8.114 3.27,-11.23 2,-2.27 4.18,-3.22 5.41,-6.79 2.4,2.06 2,4.39 0.27,6.43 1.258,0.638 2.086,1.892 2.181,3.299 0.094,1.407 -0.56,2.76 -1.721,3.561 -1,-3.61 -4.51,-6.28 -5.33,-3.72 -0.53,2.61 3.77,4.34 10.65,7 5.76,2.16 9.48,3.94 11.68,7.12"
             style="fill:#62cbcf;fill-opacity:1;fill-rule:evenodd;stroke:none"
             id="path50" /></g><g
           id="g52"
           transform="translate(27.3,25.34)"><path
             d="m 0,0 c 0.86,1.08 0.26,1.7 -0.34,1.1 -1.056,-1.019 -2.496,-1.543 -3.96,-1.44 -2.37,0.17 -4.26,0.64 -6,0.45 -3.231,-0.484 -6.22,-1.999 -8.52,-4.32 -3,-3.08 -6.32,-9.48 -3,-10.72 -0.253,0.224 -0.422,0.527 -0.48,0.86 -0.53,2.61 3.77,4.34 10.65,7 5.76,2.16 9.48,3.94 11.68,7.12"
             style="fill:#ffffff;fill-opacity:1;fill-rule:evenodd;stroke:none"
             id="path54" /></g><g
           id="g56"
           transform="translate(12.55,20.29)"><path
             d="m 0,0 c 1.77,-0.87 1.42,-3.91 1.16,-4.67 3.36,1 2.36,5.93 3.92,7.45 C 3.08,2.84 -0.54,0.87 0,0"
             style="fill:#62cbcf;fill-opacity:1;fill-rule:evenodd;stroke:none"
             id="path58" /></g><g
           id="g60"
           transform="translate(18.23,29.31)"><path
             d="M 0,0 C 0.311,0.269 0.754,0.321 1.118,0.13 1.482,-0.06 1.693,-0.454 1.649,-0.862 1.605,-1.271 1.316,-1.611 0.92,-1.72 0.47,-1.844 -0.007,-1.639 -0.227,-1.227 -0.447,-0.816 -0.353,-0.306 0,0"
             style="fill:#33363d;fill-opacity:1;fill-rule:evenodd;stroke:none"
             id="path62" /></g><g
           id="g64"
           transform="translate(26.39,28.9)"><path
             d="m 0,0 13.49,9.39 c 0.38,0.27 0.88,0.85 0.67,1.13 -0.21,0.28 -0.79,0.13 -1.29,-0.1 L -1.71,2.54 C -2.18,1.54 -1.23,-0.51 0.01,0"
             style="fill:#62cbcf;fill-opacity:1;fill-rule:evenodd;stroke:none"
             id="path66" /></g><g
           id="g68"
           transform="translate(25.21,30.75)"><path
             d="m 0,0 14.09,8.25 c 0.364,0.248 0.79,0.387 1.23,0.4 -0.21,0.24 -0.79,0.1 -1.27,-0.13 L -0.53,0.69 C -0.824,-0.251 -0.461,-1.274 0.36,-1.82 0.059,-1.26 -0.067,-0.622 0,0.01"
             style="fill:#ffffff;fill-opacity:1;fill-rule:evenodd;stroke:none"
             id="path70" /></g><g
           id="g72"
           transform="translate(4.45,27.07)"><path
             d="m 0,0 c 0.208,0.045 0.424,-0.011 0.584,-0.151 0.16,-0.14 0.244,-0.347 0.226,-0.559 0.006,-0.495 -0.351,-0.921 -0.84,-1 -0.204,-0.041 -0.416,0.016 -0.573,0.153 -0.156,0.137 -0.24,0.339 -0.227,0.547 0.016,0.484 0.357,0.895 0.83,1"
             style="fill:#43aeac;fill-opacity:1;fill-rule:evenodd;stroke:none"
             id="path74" /></g><g
           id="g76"
           transform="translate(7.18,30.08)"><path
             d="M 0,0 C 0.183,0.039 0.374,-0.012 0.514,-0.136 0.654,-0.26 0.727,-0.444 0.71,-0.63 0.678,-1.054 0.381,-1.411 -0.03,-1.52 -0.213,-1.559 -0.404,-1.508 -0.544,-1.384 -0.684,-1.26 -0.757,-1.076 -0.74,-0.89 -0.708,-0.466 -0.411,-0.109 0,0"
             style="fill:#43aeac;fill-opacity:1;fill-rule:evenodd;stroke:none"
             id="path78" /></g><g
           id="g80"
           transform="translate(15.46,34.07)"><path
             d="M 0,0 C 0.185,-0.007 0.355,-0.1 0.461,-0.251 0.567,-0.402 0.596,-0.594 0.54,-0.77 0.427,-1.179 0.054,-1.462 -0.37,-1.46 c -0.187,0.005 -0.36,0.096 -0.47,0.247 -0.11,0.151 -0.143,0.344 -0.09,0.523 0.114,0.413 0.492,0.696 0.92,0.69"
             style="fill:#43aeac;fill-opacity:1;fill-rule:evenodd;stroke:none"
             id="path82" /></g><g
           id="g84"
           transform="translate(18,34.48)"><path
             d="M 0,0 C 0.156,-0.025 0.29,-0.123 0.363,-0.262 0.436,-0.402 0.438,-0.568 0.37,-0.71 0.219,-1.033 -0.128,-1.216 -0.48,-1.16 -0.627,-1.132 -0.754,-1.039 -0.826,-0.908 -0.898,-0.776 -0.907,-0.619 -0.85,-0.48 -0.708,-0.146 -0.359,0.051 0,0"
             style="fill:#43aeac;fill-opacity:1;fill-rule:evenodd;stroke:none"
             id="path86" /></g><g
           id="g88"
           transform="translate(7.21,28.19)"><path
             d="M 0,0 C 0.137,0.029 0.279,-0.008 0.384,-0.101 0.488,-0.194 0.543,-0.331 0.53,-0.47 0.522,-0.789 0.293,-1.059 -0.02,-1.12 c -0.135,-0.029 -0.275,0.008 -0.379,0.098 -0.105,0.091 -0.16,0.224 -0.151,0.362 0.014,0.319 0.239,0.588 0.55,0.66"
             style="fill:#43aeac;fill-opacity:1;fill-rule:evenodd;stroke:none"
             id="path90" /></g><g
           id="g92"
           transform="translate(2.95,24.65)"><path
             d="M 0,0 C 0.141,0.033 0.289,-0.004 0.398,-0.099 0.507,-0.194 0.563,-0.336 0.55,-0.48 0.539,-0.811 0.304,-1.091 -0.02,-1.16 c -0.147,-0.029 -0.298,0.013 -0.409,0.113 -0.111,0.101 -0.167,0.248 -0.151,0.397 0.012,0.334 0.252,0.615 0.58,0.68"
             style="fill:#43aeac;fill-opacity:1;fill-rule:evenodd;stroke:none"
             id="path94" /></g><g
           id="g96"
           transform="translate(28.17,33.32)"><path
             d="M 0,0 -0.63,-0.32 C -0.556,-1.226 -0.06,-2.045 0.71,-2.53 0.223,-1.778 -0.025,-0.896 0,0 M 3.31,1.82 2.76,1.52 C 2.844,0.769 3.258,0.095 3.89,-0.32 3.533,0.336 3.35,1.073 3.36,1.82 Z M 6.63,3.62 6.21,3.39 C 6.21,2.85 6.6,2.04 7.04,1.93 6.753,2.445 6.628,3.033 6.68,3.62 Z M 9.83,5.34 9.46,5.14 C 9.55,4.699 9.786,4.3 10.13,4.01 9.939,4.428 9.837,4.881 9.83,5.34"
             style="fill:#43aeac;fill-opacity:1;fill-rule:evenodd;stroke:none"
             id="path98" /></g></g></g></g></svg>
